<?xml version="1.0" standalone="no"?>
<!DOCTYPE svg PUBLIC "-//W3C//DTD SVG 20010904//EN"
 "http://www.w3.org/TR/2001/REC-SVG-20010904/DTD/svg10.dtd">
<svg version="1.0" xmlns="http://www.w3.org/2000/svg"
 width="2048.000000pt" height="2048.000000pt" viewBox="0 0 2048.000000 2048.000000"
 preserveAspectRatio="xMidYMid meet">

<g transform="translate(0.000000,2048.000000) scale(0.100000,-0.100000)"
fill="#000000" stroke="none">
<path d="M9735 20470 c-22 -5 -78 -9 -125 -9 -47 -1 -121 -5 -165 -11 -44 -5
-138 -14 -210 -20 -71 -6 -164 -15 -205 -21 -41 -5 -111 -14 -155 -20 -135
-17 -344 -51 -495 -79 -25 -5 -74 -14 -110 -20 -59 -10 -172 -34 -287 -60 -24
-6 -64 -15 -90 -21 -53 -11 -89 -20 -178 -44 -33 -9 -103 -27 -155 -41 -52
-13 -106 -28 -120 -33 -14 -5 -59 -19 -100 -31 -108 -32 -118 -35 -300 -94
-181 -60 -364 -122 -395 -136 -11 -4 -36 -13 -55 -20 -41 -14 -62 -22 -110
-43 -19 -9 -80 -33 -135 -55 -55 -22 -129 -54 -165 -70 -36 -16 -85 -39 -110
-50 -106 -47 -152 -68 -280 -128 -74 -36 -144 -70 -155 -76 -11 -6 -54 -29
-95 -51 -130 -68 -225 -120 -235 -127 -5 -4 -35 -21 -65 -37 -108 -59 -157
-87 -280 -161 -137 -82 -161 -98 -360 -227 -177 -115 -347 -235 -564 -398 -45
-34 -378 -303 -401 -323 -11 -11 -47 -41 -80 -69 -117 -97 -282 -249 -425
-391 -297 -293 -538 -547 -650 -684 -25 -30 -47 -57 -50 -60 -3 -3 -25 -30
-50 -60 -25 -30 -47 -57 -50 -60 -3 -3 -17 -21 -32 -42 -15 -20 -34 -42 -41
-50 -30 -30 -306 -395 -392 -518 -124 -178 -244 -359 -310 -465 -37 -60 -78
-127 -91 -147 -13 -21 -24 -40 -24 -43 0 -4 -14 -26 -30 -50 -17 -24 -30 -47
-30 -50 0 -4 -8 -19 -18 -33 -11 -15 -36 -58 -57 -97 -21 -38 -58 -106 -82
-149 -41 -76 -284 -563 -316 -636 -21 -48 -53 -122 -76 -172 -11 -24 -49 -119
-86 -213 -37 -93 -70 -179 -75 -190 -4 -11 -17 -45 -28 -75 -11 -30 -28 -75
-37 -100 -21 -55 -157 -467 -175 -530 -7 -25 -19 -65 -27 -90 -15 -46 -69
-248 -83 -310 -4 -19 -15 -60 -23 -90 -8 -30 -20 -82 -27 -115 -7 -33 -19 -85
-27 -115 -12 -51 -28 -128 -52 -255 -18 -93 -33 -170 -38 -195 -3 -14 -9 -52
-14 -85 -4 -33 -13 -89 -19 -125 -16 -101 -31 -208 -40 -290 -63 -548 -74
-740 -74 -1265 0 -242 6 -514 12 -605 24 -336 30 -407 62 -672 19 -158 52
-382 80 -530 5 -32 14 -82 19 -110 10 -54 47 -235 61 -298 4 -19 13 -57 19
-85 6 -27 20 -86 32 -130 11 -44 25 -98 30 -120 48 -211 232 -810 289 -940 5
-11 16 -42 25 -70 9 -27 22 -63 30 -80 7 -16 34 -84 60 -150 48 -122 56 -144
94 -227 11 -26 21 -50 21 -53 0 -2 12 -30 26 -62 91 -203 282 -593 357 -728
33 -60 71 -130 85 -155 14 -25 44 -78 68 -117 24 -40 44 -75 44 -77 0 -3 23
-42 52 -88 28 -46 69 -112 91 -148 113 -184 486 -721 527 -760 3 -3 41 -52 85
-109 128 -165 288 -359 391 -471 23 -25 59 -66 80 -91 22 -26 170 -177 329
-336 264 -263 328 -324 480 -463 63 -58 248 -215 299 -255 21 -16 64 -50 96
-75 31 -25 72 -56 90 -70 19 -14 45 -34 59 -46 151 -123 554 -406 741 -521 36
-22 103 -64 150 -93 47 -29 101 -62 120 -73 19 -10 47 -28 62 -38 14 -11 29
-19 32 -19 2 0 31 -15 63 -34 32 -18 81 -46 108 -61 28 -15 77 -43 110 -61 64
-36 537 -272 595 -297 19 -8 56 -24 83 -36 26 -12 68 -30 95 -42 26 -12 62
-27 80 -35 17 -8 47 -20 65 -28 37 -16 184 -74 302 -118 83 -31 110 -41 148
-58 29 -12 423 -142 512 -169 61 -18 113 -33 330 -92 22 -6 51 -15 65 -19 14
-5 48 -13 75 -20 28 -6 66 -15 85 -20 19 -5 58 -14 85 -20 28 -6 68 -16 90
-21 44 -10 176 -37 245 -50 25 -5 65 -13 90 -19 53 -12 180 -34 345 -60 39 -6
97 -16 130 -21 108 -17 347 -44 525 -60 322 -27 414 -31 840 -36 284 -3 496
-1 565 6 61 6 182 15 270 21 394 26 751 74 1195 160 269 52 338 67 490 105 36
9 81 21 100 25 19 5 51 13 70 18 19 6 70 20 113 31 43 12 97 27 120 35 23 7
62 19 87 26 25 7 56 16 70 21 14 4 59 17 100 29 41 11 84 25 95 30 11 5 54 20
95 34 41 13 95 32 120 41 25 9 70 26 100 37 30 11 64 24 75 28 36 15 109 42
155 57 25 9 73 28 108 44 34 16 65 29 67 29 3 0 25 9 50 20 25 11 65 29 90 40
25 11 47 20 50 20 16 0 661 317 785 386 36 20 88 48 115 63 28 15 81 46 119
69 37 23 70 42 71 42 17 0 641 406 763 496 39 30 107 80 150 111 42 31 91 68
107 83 17 14 48 39 69 55 104 80 308 246 326 265 3 3 30 25 60 50 30 25 78 65
105 91 28 25 100 91 160 146 235 215 535 521 719 733 60 69 123 141 140 160
239 271 657 840 873 1190 22 36 59 96 82 134 24 38 51 84 62 102 39 70 57 100
89 154 149 249 365 685 504 1015 50 119 53 126 85 197 12 26 21 54 21 61 0 7
4 17 9 22 5 6 16 30 24 55 16 48 43 122 57 155 36 85 181 525 221 670 6 22 15
51 19 65 4 14 13 45 20 70 7 25 16 56 20 70 8 24 59 231 81 330 6 25 14 61 19
80 12 48 26 114 40 185 6 33 15 78 20 100 5 22 14 69 20 105 6 36 15 88 20
115 5 28 12 66 15 85 3 19 9 62 14 95 47 301 75 558 103 950 14 189 17 1016 5
1190 -15 221 -43 533 -58 650 -32 250 -55 406 -79 540 -5 28 -14 79 -20 115
-11 64 -23 122 -41 208 -8 39 -13 59 -38 175 -29 129 -56 238 -82 337 -11 41
-24 91 -29 110 -5 19 -13 52 -19 73 -6 20 -15 52 -20 70 -5 17 -19 64 -31 102
-12 39 -25 84 -30 100 -12 47 -105 324 -145 432 -60 162 -76 207 -87 233 -6
14 -15 35 -19 48 -5 12 -13 33 -19 47 -5 14 -14 35 -19 48 -5 12 -18 43 -30
69 -12 26 -21 50 -21 53 0 2 -11 29 -25 60 -46 101 -72 160 -91 205 -23 54
-311 628 -344 685 -13 22 -37 65 -53 95 -17 30 -62 107 -100 170 -38 63 -77
129 -87 145 -121 208 -390 603 -590 866 -77 103 -307 388 -330 409 -8 8 -36
40 -60 70 -100 123 -144 172 -325 360 -501 522 -876 848 -1520 1320 -74 54
-255 178 -338 231 -113 72 -239 150 -277 171 -19 11 -39 24 -45 28 -5 4 -27
17 -47 29 -21 12 -55 30 -75 42 -21 12 -42 25 -48 29 -5 4 -44 25 -85 47 -41
22 -104 57 -140 77 -78 44 -517 263 -580 290 -25 11 -82 37 -127 58 -46 21
-85 38 -87 38 -3 0 -31 12 -63 26 -88 40 -109 48 -228 94 -60 23 -119 46 -130
50 -11 4 -46 17 -77 29 -32 12 -82 30 -110 40 -29 11 -71 25 -93 32 -22 7 -44
16 -50 19 -5 4 -30 12 -55 20 -25 7 -97 30 -160 51 -63 21 -140 45 -170 53
-30 8 -111 31 -180 50 -153 44 -178 51 -260 71 -36 9 -81 21 -100 26 -19 5
-57 14 -85 19 -27 6 -68 14 -90 19 -127 29 -179 39 -287 60 -161 31 -264 48
-358 61 -437 59 -621 79 -935 102 -180 13 -1087 19 -1140 8z m1130 -610 c291
-22 382 -30 455 -39 236 -30 315 -41 425 -60 28 -4 95 -15 150 -24 55 -10 120
-21 145 -26 25 -5 72 -14 105 -21 33 -6 98 -21 145 -31 47 -11 104 -24 128
-30 23 -5 61 -13 85 -19 23 -5 67 -14 97 -21 30 -6 66 -15 80 -19 14 -4 45
-13 70 -20 25 -7 56 -16 70 -20 14 -4 45 -13 70 -20 25 -7 56 -16 70 -20 14
-4 45 -13 70 -20 25 -7 54 -16 65 -21 11 -5 122 -42 247 -83 188 -63 336 -116
486 -177 51 -21 69 -28 102 -40 33 -12 59 -23 183 -78 26 -11 66 -29 90 -40
119 -53 155 -70 317 -150 96 -48 211 -107 255 -130 44 -24 107 -58 140 -76 86
-46 358 -210 440 -265 39 -26 122 -80 185 -120 97 -61 277 -184 330 -227 8 -7
89 -67 180 -134 143 -107 518 -413 605 -495 407 -382 400 -376 605 -594 80
-85 152 -162 160 -170 9 -8 90 -103 180 -210 90 -107 167 -197 170 -200 3 -3
87 -113 186 -245 175 -234 444 -624 444 -645 0 -5 3 -10 8 -10 4 0 12 -10 18
-23 6 -12 47 -81 90 -152 71 -116 100 -166 206 -360 37 -68 261 -519 286 -575
22 -51 50 -114 80 -180 11 -25 55 -133 97 -240 42 -107 83 -208 90 -225 8 -16
25 -66 40 -110 14 -44 30 -89 34 -100 5 -11 14 -38 20 -60 7 -22 16 -49 21
-60 13 -30 59 -170 82 -250 10 -38 23 -83 28 -100 51 -181 109 -404 130 -500
7 -33 19 -85 27 -115 13 -53 26 -113 43 -210 19 -106 52 -289 61 -340 10 -55
21 -131 39 -285 6 -44 14 -114 20 -155 5 -41 14 -136 20 -210 6 -74 14 -191
20 -260 20 -265 23 -808 5 -1100 -23 -379 -33 -503 -45 -590 -5 -41 -14 -111
-20 -155 -19 -157 -29 -231 -40 -290 -6 -33 -15 -85 -20 -115 -5 -30 -14 -82
-20 -115 -6 -33 -15 -85 -20 -115 -6 -30 -14 -73 -19 -95 -23 -103 -33 -143
-40 -175 -5 -19 -14 -60 -21 -90 -22 -101 -52 -217 -80 -315 -11 -37 -25 -88
-39 -137 -6 -21 -16 -55 -22 -75 -5 -21 -14 -51 -18 -68 -11 -40 -79 -244 -90
-270 -5 -11 -15 -40 -22 -65 -7 -25 -16 -49 -21 -55 -4 -5 -8 -16 -8 -24 0 -8
-41 -118 -91 -245 -101 -257 -94 -240 -179 -431 -12 -27 -29 -66 -37 -85 -76
-173 -297 -601 -420 -815 -42 -71 -83 -144 -93 -161 -10 -16 -48 -77 -85 -135
-180 -278 -265 -403 -340 -504 -45 -60 -110 -148 -144 -195 -120 -163 -433
-541 -556 -670 -45 -47 -112 -118 -151 -159 -92 -99 -210 -218 -314 -316 -47
-43 -128 -120 -180 -170 -132 -126 -480 -414 -678 -562 -354 -264 -318 -239
-687 -478 -157 -102 -329 -202 -545 -320 -133 -71 -568 -285 -700 -343 -25
-11 -65 -29 -90 -40 -25 -11 -121 -50 -215 -87 -180 -71 -202 -79 -237 -95
-13 -5 -79 -27 -148 -50 -69 -23 -134 -45 -145 -50 -11 -5 -38 -14 -60 -21
-22 -6 -49 -15 -60 -19 -54 -21 -85 -31 -140 -46 -82 -22 -108 -29 -195 -53
-85 -25 -320 -84 -395 -101 -27 -6 -88 -20 -135 -31 -123 -29 -157 -36 -230
-49 -36 -6 -85 -15 -110 -20 -25 -5 -79 -14 -120 -20 -41 -6 -93 -15 -115 -20
-22 -5 -85 -14 -140 -20 -55 -6 -129 -15 -165 -20 -487 -65 -1206 -88 -1745
-55 -264 17 -421 30 -535 44 -41 5 -113 14 -160 20 -140 17 -211 28 -445 71
-66 12 -140 26 -165 30 -97 17 -157 30 -210 43 -30 8 -82 20 -115 27 -33 7
-121 29 -195 47 -132 34 -172 44 -237 64 -18 5 -49 14 -68 19 -19 6 -50 14
-67 19 -18 6 -49 14 -68 19 -38 11 -65 19 -95 32 -11 5 -103 36 -205 70 -102
33 -194 65 -205 69 -11 5 -31 13 -45 19 -14 5 -45 18 -70 27 -25 9 -58 23 -75
30 -16 7 -68 28 -115 46 -87 33 -150 60 -255 109 -33 15 -82 38 -110 50 -72
31 -479 234 -555 277 -36 19 -87 48 -115 63 -134 73 -177 98 -264 152 -51 32
-95 58 -98 58 -2 0 -23 12 -46 28 -23 15 -50 32 -59 37 -10 6 -113 75 -230
154 -251 170 -553 394 -728 540 -207 173 -314 264 -330 281 -8 8 -85 80 -170
160 -85 80 -181 172 -215 205 -71 72 -370 387 -407 430 -20 23 -275 328 -376
450 -9 11 -46 61 -82 110 -73 102 -183 250 -207 279 -8 11 -54 78 -101 150
-47 72 -119 183 -160 246 -70 107 -108 169 -153 248 -44 76 -58 100 -91 157
-79 136 -326 618 -372 725 -10 25 -39 90 -63 145 -64 144 -220 535 -249 624
-14 42 -29 85 -33 96 -5 11 -14 38 -20 60 -7 22 -16 49 -21 60 -11 24 -62 183
-80 245 -7 25 -16 56 -20 70 -4 14 -13 43 -19 65 -6 22 -24 87 -40 145 -27 97
-59 228 -81 325 -5 22 -18 78 -28 125 -11 47 -24 108 -30 135 -10 47 -15 77
-43 238 -6 34 -14 82 -19 107 -12 64 -28 171 -40 270 -6 47 -15 117 -20 155
-17 133 -29 250 -35 345 -3 52 -10 154 -15 225 -36 498 -13 1276 50 1735 5 36
14 108 20 160 12 102 26 198 40 270 10 52 23 127 40 220 23 131 33 177 69 330
11 47 25 110 32 140 7 30 23 96 36 145 25 93 27 100 62 225 12 41 28 100 37
130 17 63 169 522 186 560 6 14 14 33 19 42 5 10 9 22 9 28 0 6 9 32 21 58 25
57 28 64 70 172 73 190 147 355 304 670 107 217 135 271 209 403 14 26 38 68
52 94 14 26 53 90 85 141 33 52 59 96 59 99 0 2 12 23 28 46 15 23 32 49 37
58 6 9 19 29 29 45 11 16 48 72 83 124 35 52 69 104 77 115 7 11 26 40 42 65
22 35 261 358 340 460 31 40 284 341 294 350 3 3 25 30 50 60 43 52 88 101
297 320 138 144 142 149 239 240 49 47 130 123 179 170 50 47 119 110 155 140
36 30 67 57 70 60 3 3 34 30 70 60 36 30 67 57 70 60 38 38 175 146 407 322
132 100 704 488 718 488 4 0 25 13 48 29 51 34 172 107 247 148 30 17 98 54
150 83 90 50 505 260 514 260 2 0 44 18 93 41 48 22 102 46 118 54 17 7 55 24
85 37 30 14 71 30 90 37 47 18 70 26 100 39 196 81 737 267 940 322 19 5 64
18 100 28 108 32 497 126 625 151 28 5 75 14 105 20 123 23 158 30 215 40 65
11 160 24 295 41 47 6 117 15 155 20 452 60 1312 84 1780 50z"/>
<path d="M10367 19414 c-4 -4 -183 -10 -399 -15 -384 -7 -552 -20 -733 -53
-472 -87 -484 -90 -675 -143 -464 -130 -880 -305 -1232 -520 -310 -188 -438
-283 -618 -458 -74 -72 -162 -153 -195 -181 -33 -27 -76 -63 -95 -80 -19 -17
-69 -60 -110 -96 -41 -35 -119 -116 -174 -179 -54 -63 -162 -184 -240 -269
-78 -85 -173 -193 -211 -240 -38 -47 -92 -112 -121 -145 -58 -68 -240 -310
-301 -400 -78 -117 -383 -633 -383 -649 0 -3 -45 -95 -99 -205 -107 -215 -211
-453 -261 -596 -89 -256 -167 -514 -215 -715 -23 -95 -34 -140 -81 -325 -14
-55 -29 -122 -34 -148 -5 -27 -16 -72 -23 -100 -64 -226 -101 -871 -79 -1346
15 -326 71 -698 143 -961 89 -323 163 -551 232 -720 121 -296 222 -502 343
-700 39 -63 95 -158 127 -211 173 -294 472 -647 772 -909 65 -58 129 -115 141
-126 137 -131 323 -273 474 -362 125 -73 189 -112 342 -211 299 -191 548 -294
998 -411 532 -139 896 -162 1360 -85 210 34 443 109 615 197 212 109 445 340
445 442 0 72 -44 74 -196 10 -288 -120 -387 -158 -484 -186 -275 -77 -497
-103 -774 -88 -303 17 -462 38 -676 92 -122 31 -420 138 -541 195 -136 64
-423 226 -568 319 -365 236 -703 533 -1087 955 -177 195 -254 302 -399 554
-54 94 -123 213 -155 265 -32 52 -69 122 -83 155 -97 232 -204 552 -272 820
-151 593 -200 1041 -176 1605 13 305 31 453 96 805 53 292 170 711 272 975 14
36 123 263 244 505 157 317 238 468 289 540 38 55 122 178 185 273 222 332
386 536 648 807 16 17 86 98 157 180 86 102 170 187 261 265 73 63 183 162
244 220 184 175 279 248 509 389 553 342 754 444 1201 611 72 27 189 72 260
100 273 108 444 170 467 170 13 0 77 14 143 30 125 32 405 89 535 110 41 6
107 18 145 25 39 8 106 21 150 30 142 28 221 70 213 111 -5 27 -51 55 -114 70
-61 14 -196 19 -207 8z"/>
<path d="M11655 18949 c-181 -9 -414 -33 -525 -54 -41 -7 -97 -16 -125 -20
-65 -8 -209 -41 -310 -70 -298 -87 -675 -204 -830 -257 -84 -29 -434 -172
-497 -204 -29 -14 -118 -66 -198 -114 -80 -47 -210 -121 -290 -162 -286 -149
-435 -243 -580 -364 -52 -44 -167 -131 -255 -194 -200 -143 -287 -212 -395
-314 -47 -45 -121 -112 -164 -151 -170 -150 -216 -195 -345 -335 -73 -80 -181
-197 -239 -261 -187 -203 -233 -262 -453 -587 -287 -422 -376 -583 -504 -912
-42 -107 -99 -251 -127 -320 -78 -195 -146 -410 -196 -620 -37 -155 -85 -438
-97 -570 -4 -36 -13 -114 -21 -173 -25 -189 -37 -578 -24 -802 20 -351 77
-711 154 -965 7 -25 26 -88 42 -140 104 -357 390 -901 667 -1269 168 -224 347
-419 509 -554 178 -148 619 -430 817 -524 118 -56 160 -73 356 -144 238 -88
410 -119 655 -120 266 -1 433 43 498 130 30 41 28 67 -7 85 -25 14 -77 21
-375 57 -143 17 -257 48 -425 115 -294 117 -496 223 -798 420 -168 109 -277
201 -454 381 -355 362 -577 702 -753 1153 -246 627 -311 953 -323 1636 -7 409
6 556 87 1006 28 157 45 214 171 573 93 264 134 362 261 615 114 230 178 334
391 640 192 276 225 317 457 582 165 189 306 330 470 470 74 64 167 148 205
188 39 39 104 97 145 128 335 250 713 508 909 621 269 156 800 416 929 455 26
8 90 30 143 49 175 64 610 182 799 217 36 6 85 16 110 21 95 19 264 39 495 59
534 47 1157 20 1620 -71 277 -54 401 -82 550 -124 28 -8 100 -29 160 -46 61
-17 191 -58 290 -90 99 -33 212 -68 250 -78 92 -25 103 -29 150 -61 22 -15
185 -99 361 -188 177 -88 382 -195 455 -238 186 -107 192 -110 299 -167 183
-97 431 -257 640 -412 52 -39 126 -93 164 -120 37 -28 109 -83 160 -124 81
-66 147 -114 306 -226 68 -48 185 -105 215 -105 89 0 -50 195 -368 515 -93 94
-199 196 -235 227 -37 31 -126 108 -198 170 -269 231 -366 308 -514 407 -69
46 -143 98 -165 116 -48 38 -357 237 -510 327 -60 36 -191 107 -290 157 -160
80 -246 119 -485 215 -36 15 -74 32 -84 38 -11 6 -49 21 -85 34 -36 12 -129
46 -206 74 -215 79 -542 178 -750 226 -552 128 -1092 173 -1690 143z"/>
<path d="M5645 18071 c-27 -16 -104 -66 -170 -111 -66 -44 -167 -112 -225
-150 -111 -73 -235 -163 -390 -285 -52 -42 -140 -110 -195 -152 -169 -129
-331 -272 -547 -479 -239 -231 -349 -357 -500 -575 -122 -176 -312 -541 -378
-724 -36 -102 -124 -336 -177 -470 -57 -147 -173 -566 -213 -770 -4 -22 -19
-94 -33 -160 -46 -224 -83 -493 -103 -737 -9 -121 -6 -854 5 -1038 29 -479 91
-896 185 -1235 8 -27 21 -75 29 -105 82 -300 150 -504 214 -640 30 -63 80
-173 110 -245 30 -71 69 -161 85 -200 41 -95 171 -354 221 -440 45 -79 291
-451 358 -541 253 -345 619 -731 908 -958 486 -381 559 -431 946 -646 66 -36
161 -89 210 -117 170 -95 443 -210 725 -306 79 -27 375 -106 520 -139 47 -11
112 -26 145 -34 109 -26 269 -54 360 -64 50 -5 122 -15 160 -22 45 -8 168 -13
340 -13 300 0 441 16 666 76 63 16 143 37 179 46 163 40 425 119 527 159 163
63 274 121 425 223 279 188 519 411 671 624 113 159 265 454 282 548 9 48 -6
53 -98 32 -99 -22 -111 -29 -208 -129 -271 -282 -335 -345 -442 -433 -191
-154 -320 -236 -534 -335 -329 -152 -643 -245 -954 -281 -175 -20 -598 -20
-774 0 -151 18 -346 50 -425 70 -30 8 -100 25 -155 39 -271 66 -572 169 -770
266 -695 338 -779 384 -1024 567 -86 64 -226 168 -311 232 -118 87 -188 150
-295 261 -76 80 -207 213 -290 295 -192 190 -210 212 -400 490 -87 127 -177
257 -200 290 -38 56 -165 271 -165 280 0 3 -18 43 -40 90 -22 47 -40 88 -40
91 0 3 -16 42 -35 87 -178 421 -307 818 -380 1167 -10 47 -24 110 -31 140 -23
95 -82 478 -100 650 -25 237 -26 922 -1 1210 28 322 63 579 117 865 4 22 15
78 24 125 8 47 33 139 55 205 160 488 248 716 388 1005 100 205 132 260 228
395 40 55 107 159 150 230 145 242 193 308 423 583 115 137 166 197 288 334
50 57 115 135 145 173 178 230 330 408 461 542 83 84 147 156 143 162 -10 18
-37 12 -90 -18z"/>
<path d="M12030 17524 c-135 -9 -293 -27 -395 -45 -233 -42 -264 -48 -390 -73
-349 -69 -572 -129 -810 -219 -386 -147 -759 -311 -930 -410 -144 -84 -615
-397 -738 -491 -244 -185 -583 -499 -786 -726 -220 -244 -277 -319 -443 -580
-19 -30 -67 -98 -107 -150 -169 -221 -337 -571 -441 -920 -12 -41 -29 -93 -37
-115 -16 -41 -56 -171 -97 -310 -33 -111 -51 -190 -74 -330 -94 -562 -93 -890
4 -1400 41 -215 90 -383 183 -618 21 -54 182 -370 238 -466 219 -380 513 -699
837 -906 92 -59 230 -119 366 -160 65 -20 197 -37 221 -30 23 8 39 42 39 86 0
31 11 22 -211 165 -243 156 -577 516 -760 820 -237 393 -355 761 -435 1359
-25 180 -24 658 0 836 46 332 126 652 216 859 11 25 40 99 66 165 101 259 185
414 432 795 132 203 163 240 501 599 177 188 560 533 701 633 66 46 286 180
350 213 19 10 103 63 185 118 177 117 311 185 570 289 208 83 233 92 475 168
91 28 219 69 285 90 149 48 419 118 483 125 318 36 413 46 567 57 234 17 712
17 880 0 249 -26 465 -60 570 -92 33 -10 132 -35 220 -55 268 -62 447 -106
510 -125 244 -74 388 -124 620 -212 86 -33 446 -210 573 -281 42 -24 124 -70
182 -102 232 -128 332 -193 665 -431 290 -207 327 -237 519 -412 402 -367 578
-544 791 -792 134 -157 152 -180 280 -370 65 -96 132 -193 150 -215 59 -74
117 -167 177 -284 83 -161 159 -304 168 -316 20 -28 173 -333 210 -420 24 -55
47 -105 51 -110 34 -45 176 -425 293 -780 129 -393 158 -491 197 -665 43 -194
89 -377 108 -430 76 -215 147 -531 177 -780 14 -120 41 -224 64 -242 20 -16
24 -16 51 -3 59 31 64 55 64 320 0 255 -16 417 -55 565 -11 41 -25 109 -30
150 -6 41 -15 102 -21 135 -6 33 -17 110 -25 170 -30 248 -46 364 -60 445 -8
47 -19 111 -25 142 -5 32 -13 68 -18 81 -5 13 -28 102 -51 198 -63 264 -65
272 -119 454 -125 423 -212 634 -513 1235 -254 507 -463 852 -719 1186 -347
452 -448 553 -954 955 -93 74 -188 149 -210 166 -54 41 -672 454 -760 507
-282 172 -882 438 -1250 556 -88 28 -187 62 -220 75 -136 52 -287 99 -410 127
-71 17 -166 39 -210 49 -348 82 -676 134 -995 159 -136 11 -838 21 -940 14z"/>
<path d="M11888 16075 c-92 -7 -198 -18 -235 -24 -37 -7 -108 -19 -158 -27
-266 -45 -349 -65 -565 -132 -240 -75 -538 -192 -665 -261 -550 -299 -756
-425 -880 -541 -71 -67 -284 -250 -401 -347 -116 -95 -294 -294 -377 -423 -20
-30 -77 -108 -129 -172 -162 -203 -341 -511 -419 -719 -122 -328 -156 -449
-214 -749 -71 -369 -59 -734 40 -1216 80 -388 245 -701 482 -913 108 -97 272
-191 308 -177 38 14 11 58 -125 201 -80 84 -114 134 -169 242 -111 222 -164
487 -191 964 -27 464 49 872 253 1354 77 182 146 303 283 498 297 424 504 654
838 932 267 222 289 236 716 455 168 87 334 173 370 192 282 153 917 298 1445
329 171 11 237 10 455 -4 140 -10 287 -22 325 -28 205 -31 380 -61 460 -79 50
-11 126 -27 170 -36 189 -37 392 -104 670 -222 39 -16 162 -69 275 -116 281
-118 534 -248 730 -374 482 -309 644 -428 1065 -778 172 -142 443 -411 618
-611 50 -59 116 -134 146 -167 49 -56 112 -139 320 -420 200 -269 356 -526
566 -931 54 -104 101 -194 105 -200 25 -33 147 -294 200 -425 116 -290 261
-751 321 -1019 10 -46 25 -109 34 -140 32 -123 74 -310 84 -376 28 -185 32
-239 41 -505 11 -299 1 -774 -20 -990 -11 -114 -38 -290 -85 -570 -30 -173
-43 -236 -102 -485 -25 -104 -52 -219 -59 -255 -58 -270 -60 -279 -89 -545 -9
-77 -18 -148 -21 -157 -10 -32 5 -58 33 -58 72 0 210 150 292 316 123 252 255
581 312 778 11 38 24 77 30 87 9 18 76 266 86 319 3 14 20 90 38 170 51 221
95 454 95 504 0 24 7 104 16 178 13 99 17 227 18 503 1 420 -8 527 -79 910
-38 200 -120 579 -130 595 -2 3 -13 47 -24 96 -40 173 -113 403 -204 634 -25
63 -69 178 -98 255 -124 331 -309 699 -578 1150 -131 220 -354 540 -548 785
-122 155 -442 514 -648 729 -75 78 -284 267 -469 425 -164 139 -574 440 -801
588 -185 120 -450 268 -625 348 -52 24 -178 83 -280 133 -283 136 -526 219
-1020 345 -266 69 -400 93 -825 151 -290 40 -688 50 -1007 26z"/>
<path d="M2584 15291 c-18 -11 -43 -34 -57 -53 -41 -55 -127 -214 -192 -357
-35 -75 -99 -212 -144 -305 -44 -92 -81 -169 -81 -171 0 -1 -23 -51 -50 -110
-28 -58 -73 -161 -101 -228 -27 -67 -59 -142 -69 -167 -156 -370 -277 -817
-320 -1185 -33 -290 -41 -762 -15 -1026 8 -85 19 -203 25 -264 30 -331 41
-442 45 -456 3 -9 9 -56 14 -105 22 -217 66 -409 190 -814 126 -415 161 -502
343 -865 137 -273 143 -284 247 -460 140 -236 461 -696 625 -895 206 -250 563
-615 811 -829 362 -313 487 -403 910 -656 44 -26 104 -63 134 -83 58 -38 324
-174 456 -234 44 -20 114 -52 155 -71 174 -79 655 -260 865 -324 203 -63 428
-109 830 -173 242 -38 346 -45 690 -45 462 0 752 30 1140 119 148 33 394 114
515 169 30 13 161 72 291 130 130 58 263 120 295 137 283 152 392 229 610 430
147 136 284 282 410 440 251 314 321 416 429 632 135 269 198 443 280 775 43
174 55 283 55 501 0 168 -4 221 -21 305 -39 187 -96 317 -140 317 -23 0 -26
-15 -34 -145 -3 -55 -12 -143 -20 -195 -8 -52 -21 -147 -30 -210 -40 -285
-164 -646 -298 -873 -26 -43 -47 -80 -47 -83 0 -4 -67 -109 -149 -234 -31 -47
-92 -130 -136 -184 -44 -55 -95 -120 -114 -145 -91 -122 -338 -382 -466 -490
-366 -309 -770 -529 -1217 -665 -65 -19 -126 -40 -137 -45 -48 -26 -187 -64
-301 -82 -69 -11 -161 -26 -205 -34 -171 -32 -990 -27 -1135 5 -25 6 -79 15
-120 20 -41 5 -127 20 -190 34 -63 14 -169 37 -235 51 -377 83 -566 141 -930
285 -71 29 -148 59 -170 67 -152 56 -594 295 -935 506 -333 206 -775 574
-1101 918 -316 332 -410 452 -717 909 -157 234 -255 402 -374 643 -122 245
-199 433 -281 677 -116 350 -188 638 -241 960 -40 245 -47 298 -56 408 -5 64
-14 169 -20 232 -13 143 -13 868 0 1010 5 58 14 159 20 225 16 184 60 487 86
596 8 31 14 65 14 75 0 11 16 89 35 174 20 85 40 175 45 200 27 138 55 255 77
330 13 47 45 155 69 240 25 85 55 187 68 225 99 290 167 509 162 521 -8 20
-56 17 -92 -5z"/>
<path d="M11895 14739 c-376 -15 -770 -91 -1015 -195 -58 -25 -139 -59 -180
-76 -266 -110 -337 -144 -554 -265 -156 -88 -330 -225 -590 -468 -232 -216
-326 -324 -466 -535 -104 -158 -163 -271 -236 -455 -127 -321 -167 -560 -168
-985 0 -224 3 -267 21 -350 41 -180 135 -424 169 -437 40 -15 44 15 44 336 0
317 3 362 52 626 35 193 133 459 234 637 94 166 230 374 305 468 126 157 355
371 549 514 306 225 409 278 880 451 283 105 340 122 530 160 214 43 322 50
715 49 297 -1 388 -5 460 -18 123 -23 253 -50 295 -63 19 -6 89 -26 155 -44
145 -38 433 -141 605 -214 280 -119 445 -204 690 -355 69 -42 176 -108 238
-146 120 -74 311 -211 403 -290 282 -243 384 -337 655 -608 251 -252 329 -337
410 -446 55 -74 106 -145 114 -157 8 -11 61 -86 117 -165 117 -165 198 -293
272 -428 94 -173 208 -403 264 -535 30 -71 72 -166 92 -210 52 -112 111 -254
123 -295 6 -19 27 -80 47 -135 125 -338 213 -689 281 -1130 77 -498 114 -936
114 -1375 1 -278 -4 -352 -35 -590 -51 -390 -229 -1143 -325 -1380 -10 -25
-41 -106 -68 -180 -27 -74 -66 -171 -87 -215 -20 -44 -55 -129 -77 -190 -53
-143 -97 -238 -142 -309 -41 -64 -130 -211 -287 -476 -91 -155 -136 -239 -192
-360 -9 -19 -35 -75 -57 -125 -76 -163 -112 -275 -107 -326 10 -113 78 -139
184 -70 78 50 391 347 504 478 235 272 574 863 784 1369 89 214 98 238 166
474 33 113 70 239 83 280 34 106 83 292 100 380 37 189 46 241 56 329 6 51 13
97 15 101 10 17 37 261 50 465 30 454 18 839 -41 1310 -8 66 -19 158 -25 205
-5 47 -16 119 -24 160 -7 41 -21 120 -31 175 -18 108 -68 325 -109 470 -14 50
-38 142 -54 205 -16 63 -46 171 -66 240 -20 69 -43 149 -51 177 -64 245 -188
544 -397 958 -231 456 -239 470 -681 1125 -62 92 -178 246 -243 321 -107 126
-373 418 -443 489 -100 100 -646 546 -712 581 -11 6 -40 26 -64 45 -46 35
-214 140 -447 281 -256 155 -650 339 -957 447 -484 172 -626 209 -985 260
-149 22 -585 51 -655 44 -8 -1 -100 -5 -205 -9z"/>
<path d="M11775 13525 c-11 -2 -74 -9 -140 -15 -566 -56 -1036 -236 -1485
-569 -306 -227 -529 -531 -648 -886 -51 -152 -65 -220 -65 -317 -1 -68 2 -81
23 -103 45 -48 56 -39 155 130 107 185 287 431 415 567 156 168 361 312 595
421 252 117 496 199 660 223 28 3 60 11 73 15 44 17 346 49 451 49 104 -1 353
-28 441 -48 25 -6 95 -21 155 -32 61 -12 135 -28 165 -37 273 -78 615 -204
747 -274 160 -85 628 -398 783 -523 282 -228 651 -605 909 -930 103 -130 292
-426 423 -665 56 -101 218 -441 218 -456 0 -2 18 -43 41 -91 22 -48 51 -117
64 -153 13 -36 33 -93 45 -126 50 -135 144 -406 171 -490 25 -79 38 -138 79
-350 16 -84 39 -246 49 -340 6 -50 15 -126 21 -170 19 -139 40 -551 40 -785 0
-316 -24 -754 -50 -910 -5 -30 -16 -104 -25 -165 -41 -283 -152 -739 -247
-1015 -139 -405 -339 -840 -523 -1140 -32 -52 -81 -133 -108 -180 -59 -101
-72 -123 -162 -260 -75 -115 -142 -202 -280 -358 -49 -57 -110 -127 -135 -156
-278 -327 -594 -642 -841 -838 -46 -37 -131 -104 -189 -150 -151 -120 -359
-268 -377 -268 -15 0 -280 -169 -353 -225 -47 -36 -144 -124 -216 -195 -107
-105 -135 -139 -148 -177 -19 -55 -21 -104 -4 -121 26 -26 149 -10 398 49 196
47 287 78 395 132 55 27 179 87 275 131 186 87 337 175 540 318 158 110 269
205 494 421 216 207 370 373 506 544 55 70 137 171 181 223 44 52 106 133 137
180 32 47 78 114 104 150 47 66 164 259 293 485 16 27 102 196 191 375 186
373 257 543 384 920 74 218 97 294 115 375 7 33 24 105 38 160 26 100 71 322
88 425 32 208 39 256 50 345 25 218 39 401 50 645 12 280 6 832 -10 950 -6 41
-20 149 -31 240 -21 167 -25 188 -81 475 -31 159 -133 528 -187 680 -62 173
-123 327 -162 412 -39 83 -104 232 -199 456 -37 88 -82 178 -146 292 -12 22
-37 67 -55 100 -34 62 -90 149 -202 315 -36 52 -95 142 -132 199 -190 288
-616 763 -890 992 -49 41 -117 97 -150 124 -237 197 -550 398 -841 540 -187
92 -563 241 -665 264 -19 5 -107 27 -195 49 -88 23 -189 48 -225 56 -36 8
-103 24 -150 35 -171 41 -256 52 -440 56 -102 2 -194 2 -205 0z"/>
<path d="M11415 12403 c-365 -32 -642 -131 -862 -309 -71 -57 -120 -109 -140
-148 -41 -79 -39 -152 5 -163 32 -8 70 6 217 77 191 93 238 107 518 150 180
28 431 28 587 -1 124 -23 286 -73 390 -121 389 -181 624 -324 935 -566 192
-149 277 -228 501 -467 187 -199 280 -306 335 -385 98 -140 372 -625 448 -795
38 -85 114 -297 164 -460 23 -73 73 -285 96 -400 53 -274 78 -464 98 -755 15
-227 16 -288 5 -535 -18 -394 -58 -754 -118 -1055 -47 -231 -62 -284 -187
-645 -81 -232 -161 -404 -318 -683 -208 -368 -253 -439 -404 -637 -50 -66
-129 -169 -175 -230 -136 -181 -306 -388 -398 -487 -361 -389 -509 -528 -902
-849 -276 -225 -391 -305 -610 -424 -69 -38 -206 -117 -305 -176 -160 -96
-252 -143 -500 -259 -121 -56 -252 -105 -505 -189 -288 -97 -426 -137 -610
-181 -74 -17 -189 -45 -255 -61 -135 -35 -312 -69 -455 -88 -36 -5 -114 -16
-175 -25 -60 -8 -166 -23 -235 -32 -69 -9 -139 -22 -156 -29 -33 -13 -89 -97
-81 -119 12 -31 391 -110 653 -136 60 -6 152 -15 204 -20 223 -24 644 -2 910
47 205 37 401 96 595 178 61 25 135 56 165 67 104 39 495 210 625 273 361 175
904 523 1167 748 66 56 159 135 206 175 229 195 356 310 419 380 37 42 150
163 250 267 218 227 352 395 535 667 34 51 113 165 176 253 101 142 185 273
264 415 14 25 56 99 93 165 370 651 594 1425 686 2370 15 158 15 758 0 905
-28 278 -68 526 -142 894 -68 336 -177 656 -351 1036 -19 41 -72 140 -118 220
-46 80 -94 165 -108 190 -34 60 -174 274 -255 389 -83 117 -339 410 -492 564
-127 126 -176 163 -556 420 -239 162 -443 273 -659 362 -123 50 -429 147 -570
180 -143 33 -445 52 -605 38z"/>
<path d="M11797 11333 c-13 -12 -7 -36 18 -69 14 -18 43 -71 66 -118 46 -97
130 -189 324 -355 284 -243 390 -378 653 -826 98 -168 246 -459 276 -545 18
-49 118 -349 141 -420 99 -310 154 -880 126 -1320 -23 -353 -75 -711 -131
-901 -21 -68 -105 -275 -120 -294 -5 -5 -34 -66 -65 -135 -126 -276 -286 -590
-346 -677 -61 -88 -148 -202 -324 -428 -44 -56 -109 -140 -145 -186 -60 -76
-440 -459 -620 -625 -233 -213 -660 -539 -916 -697 -143 -89 -376 -210 -564
-291 -74 -33 -175 -77 -225 -99 -154 -68 -408 -156 -610 -212 -55 -15 -129
-35 -165 -46 -91 -25 -324 -65 -525 -88 -514 -59 -830 -61 -1365 -5 -233 24
-645 93 -891 150 -80 19 -153 34 -161 34 -9 0 -38 7 -64 15 -27 8 -105 31
-174 51 -130 39 -250 85 -455 174 -66 28 -180 76 -254 106 -276 111 -654 309
-867 452 -82 55 -196 128 -254 162 -248 148 -352 227 -489 374 -25 27 -116
108 -201 181 -196 167 -476 454 -710 725 -80 93 -246 274 -407 444 -68 71
-149 161 -180 200 -128 157 -264 304 -316 340 -66 45 -103 47 -100 3 5 -74
109 -274 247 -476 51 -75 146 -226 211 -336 65 -110 125 -211 133 -225 28 -44
273 -377 429 -581 181 -237 714 -776 923 -932 30 -23 84 -65 120 -93 36 -28
155 -111 265 -184 110 -73 225 -150 255 -170 95 -64 352 -224 423 -264 160
-89 451 -227 567 -269 156 -57 359 -122 700 -225 144 -43 432 -109 735 -168
127 -24 259 -51 295 -59 36 -8 108 -19 160 -25 52 -5 124 -14 160 -19 36 -5
171 -17 300 -27 344 -24 858 -9 1060 31 14 3 61 10 104 15 44 6 107 16 140 24
34 8 104 24 156 36 52 12 147 37 210 56 63 20 153 47 200 61 47 13 105 31 130
38 25 8 83 25 130 39 262 77 537 193 824 347 350 189 550 314 741 463 61 47
182 141 270 208 316 241 459 365 686 595 217 220 328 350 479 563 68 96 142
200 164 230 79 107 263 396 318 500 69 130 258 505 258 513 0 3 19 45 41 94
93 199 184 502 234 778 64 355 67 380 91 630 32 348 29 569 -11 895 -44 356
-123 638 -264 953 -39 86 -102 227 -140 312 -142 316 -264 526 -382 661 -365
417 -496 542 -708 679 -92 59 -298 158 -458 219 -123 46 -144 52 -156 39z"/>
<path d="M1147 11262 c-28 -31 -57 -109 -67 -179 -50 -372 -64 -573 -63 -914
1 -301 6 -381 44 -724 5 -49 14 -133 19 -185 6 -52 16 -131 25 -175 57 -313
80 -428 97 -485 50 -171 64 -214 105 -335 25 -71 51 -143 58 -160 7 -16 20
-55 30 -85 10 -30 32 -89 51 -130 18 -41 54 -124 80 -185 104 -244 224 -459
387 -692 175 -251 322 -420 636 -733 417 -417 670 -642 890 -795 39 -27 98
-68 129 -90 31 -23 102 -69 157 -103 55 -35 156 -101 225 -148 212 -145 403
-250 900 -496 314 -156 425 -203 705 -300 205 -71 229 -79 420 -128 61 -15
144 -38 185 -50 67 -19 286 -74 460 -115 130 -30 462 -78 675 -97 199 -17 789
-17 1010 1 94 7 238 24 320 38 83 14 175 29 206 34 145 22 527 127 704 192
449 166 767 317 1055 501 219 140 286 186 415 283 83 61 168 129 190 150 22
21 112 105 200 187 202 187 224 211 360 381 336 421 549 762 693 1110 169 406
202 491 235 595 94 301 150 753 127 1031 -19 237 -53 387 -152 684 -74 221
-120 303 -276 493 -156 192 -218 242 -261 215 -39 -25 -21 -82 134 -413 113
-244 140 -354 155 -639 10 -183 0 -476 -21 -598 -41 -252 -115 -577 -155 -678
-145 -374 -221 -527 -427 -860 -96 -155 -111 -175 -247 -330 -58 -66 -134
-158 -170 -204 -109 -142 -261 -302 -372 -391 -57 -47 -165 -146 -239 -220
-74 -74 -160 -151 -192 -170 -31 -19 -126 -79 -210 -133 -501 -322 -686 -406
-1217 -551 -208 -56 -298 -70 -595 -91 -635 -46 -1238 -40 -1620 16 -38 6 -99
14 -135 19 -57 7 -277 53 -457 95 -35 8 -93 22 -130 31 -234 54 -487 134 -651
205 -75 33 -207 90 -292 127 -249 106 -597 290 -875 462 -77 47 -180 110 -230
140 -132 78 -320 204 -400 269 -359 289 -559 466 -767 677 -287 291 -435 472
-656 806 -374 563 -500 831 -711 1513 -181 587 -196 645 -245 980 -35 237 -55
359 -72 435 -7 36 -18 106 -24 155 -6 50 -17 140 -25 200 -29 240 -35 284 -45
404 -6 68 -15 134 -20 147 -11 28 -40 31 -63 6z"/>
<path d="M10100 11076 c-129 -21 -177 -35 -279 -82 -127 -59 -201 -120 -353
-289 -45 -50 -99 -142 -131 -222 -80 -204 -55 -539 58 -763 55 -108 196 -270
317 -362 188 -144 329 -190 588 -191 301 -2 498 82 731 313 93 91 112 117 149
193 48 100 95 277 105 395 18 197 -48 441 -165 612 -43 63 -163 182 -230 227
-69 47 -216 119 -305 149 -72 24 -97 27 -240 30 -99 2 -193 -2 -245 -10z"/>
</g>
</svg>
